<svg xmlns="http://www.w3.org/2000/svg" aria-hidden="true" style="position:absolute;width:0;height:0;overflow:hidden"><defs><symbol id="client0" viewBox="0 0 64 32"><path d="m8.107 1.493 1.495 1.424-2.775-.001v6.91h7.253V7.184l1.493 1.423V1.493H8.106zm5.907 5.524L9.775 2.979h4.239v4.038zm-1.316 1.798H7.974V4.168h.334v4.333h4.39v.315zm-3.782 2.292-.176-.362h-.145l.255.479v.279h.132v-.279l.255-.479h-.145l-.176.362zm.649-.363h.031l.287.758h-.137l-.061-.178h-.294l-.061.178h-.137l.285-.758h.087zm-.139.478h.222l-.111-.322-.111.322zm.917-.126-.013-.016-.004-.005a.375.375 0 0 1-.044-.072l-.001-.002a.208.208 0 0 1 .008-.177.158.158 0 0 1 .068-.065h.001a.22.22 0 0 1 .105-.023c.039 0 .072.008.1.023a.163.163 0 0 1 .074.211v-.001a.189.189 0 0 1-.036.054.38.38 0 0 1-.052.046l-.001.001-.053.038.15.177a.29.29 0 0 0 .033-.136v-.006h.108a.505.505 0 0 1-.011.105.314.314 0 0 1-.056.126l.001-.001.111.131h-.145l-.044-.052a.28.28 0 0 1-.076.042l-.002.001a.35.35 0 0 1-.115.02h-.003a.284.284 0 0 1-.131-.028.213.213 0 0 1-.085-.075l-.001-.001a.205.205 0 0 1-.03-.107V11.3c0-.031.006-.058.019-.081s.03-.046.053-.066a.714.714 0 0 1 .07-.056zm.062.076-.016.011a.186.186 0 0 0-.041.043v.001a.128.128 0 0 0-.007.129v-.001c.01.018.024.033.042.043h.001c.019.01.041.016.064.016h.004a.19.19 0 0 0 .123-.043h-.001l-.169-.198zm.03-.139.046-.031a.189.189 0 0 0 .047-.042.092.092 0 0 0 .014-.05v-.004a.075.075 0 0 0-.075-.073h-.007a.077.077 0 0 0-.07.044.106.106 0 0 0 .004.093v-.001a.316.316 0 0 0 .033.052l.009.011zm1.327.223h-.13a.239.239 0 0 1-.024.085l.001-.001a.122.122 0 0 1-.052.051h-.001a.197.197 0 0 1-.082.018h-.012a.158.158 0 0 1-.075-.019h.001a.156.156 0 0 1-.054-.051v-.001a.255.255 0 0 1-.031-.078v-.002a.521.521 0 0 1-.01-.1v-.068c0-.041.004-.076.011-.108s.019-.058.034-.08a.152.152 0 0 1 .055-.049h.001a.164.164 0 0 1 .074-.017h.004c.036 0 .066.006.089.019s.039.03.051.053a.245.245 0 0 1 .023.084h.13a.34.34 0 0 0-.043-.136l.001.002a.243.243 0 0 0-.096-.092l-.001-.001a.32.32 0 0 0-.143-.034h-.01.001c-.048 0-.09.009-.129.025s-.07.041-.098.073a.335.335 0 0 0-.062.111l-.001.002a.485.485 0 0 0-.021.148v.063c0 .054.007.104.021.148s.035.082.061.113a.282.282 0 0 0 .223.097c.061 0 .113-.011.156-.033s.076-.053.099-.091a.306.306 0 0 0 .042-.133zm.723-.112v-.042a.462.462 0 0 0-.023-.154.332.332 0 0 0-.064-.117.283.283 0 0 0-.098-.073l-.002-.001c-.038-.017-.081-.026-.128-.026s-.089.009-.128.026a.297.297 0 0 0-.164.189.458.458 0 0 0-.023.147v.049c0 .057.008.109.023.154s.037.083.066.117a.286.286 0 0 0 .227.099c.047 0 .09-.009.128-.025s.072-.042.099-.074c.028-.032.049-.07.064-.116s.022-.097.022-.154zm-.13-.042v.043c0 .042-.004.08-.013.113a.243.243 0 0 1-.036.084l.001-.001a.167.167 0 0 1-.056.05h-.001a.164.164 0 0 1-.074.017h-.007a.172.172 0 0 1-.075-.017h.001a.156.156 0 0 1-.058-.05v-.001a.248.248 0 0 1-.036-.081v-.002a.448.448 0 0 1-.013-.107V11.101c0-.042.004-.08.013-.112s.02-.06.036-.082a.161.161 0 0 1 .057-.05h.001a.164.164 0 0 1 .074-.017h.003c.029 0 .055.006.078.017s.042.028.058.05c.016.022.028.049.036.082s.013.07.013.112z"/></symbol><symbol id="client1" viewBox="0 0 64 32"><path d="M10.691 1.266h-.029c-.045-.003-.09-.004-.134-.005h-.097c-.085 0-.171.002-.257.006h-.02a6.02 6.02 0 0 0-2.28.588l.036-.016-.092.044v4.724l.216-.073c.189-.065.391-.124.6-.178a7.126 7.126 0 0 1 1.722-.229h.005v.621c-.077 0-.152.003-.227.006h-.018c-.485.027-.939.1-1.377.215l.048-.011a6.72 6.72 0 0 0-1.618.635l.035-.018V1.517A6.205 6.205 0 0 1 8.821.851l.044-.01a6.199 6.199 0 0 1 1.564-.202h.092c.109.003.215.008.315.015.263.019.524.06.78.124v.611a4.606 4.606 0 0 0-.74-.113l-.016-.001-.016-.001c-.053-.004-.105-.009-.154-.009zm1.075.624c.135.01.276.015.418.015a6.685 6.685 0 0 0 1.692-.222l-.047.01a6.753 6.753 0 0 0 1.617-.635l-.035.018v5.95a6.205 6.205 0 0 1-1.617.666l-.044.01a6.2 6.2 0 0 1-1.564.201h-.039c-.408 0-.804-.051-1.182-.147l.033.007V1.774a4.847 4.847 0 0 0 .768.115zm3.028.047-.216.073a9.168 9.168 0 0 1-.6.18 7.112 7.112 0 0 1-1.792.23h-.001c-.141 0-.27-.004-.396-.012l-.172-.011v4.859l.148.013c.137.012.278.018.421.018a5.734 5.734 0 0 0 1.452-.192l-.04.009a5.91 5.91 0 0 0 1.139-.412l-.035.015.092-.044V1.938zM7.624 9.645a.317.317 0 0 0-.229-.097h-.012.001-.005a.362.362 0 0 0-.136.027l.002-.001a.313.313 0 0 0-.177.178l-.001.002a.362.362 0 0 0-.025.134v.809a.378.378 0 0 0 .032.166.288.288 0 0 0 .192.167c.039.011.08.017.121.017a.343.343 0 0 0 .336-.341v-.09h-.212v.077a.191.191 0 0 1-.013.068v-.001a.133.133 0 0 1-.031.046.149.149 0 0 1-.088.031l-.012.001a.107.107 0 0 1-.087-.044.188.188 0 0 1-.028-.1v-.763a.267.267 0 0 1 .026-.121.11.11 0 0 1 .104-.049h-.001.004c.037 0 .07.018.09.045a.171.171 0 0 1 .035.104V9.985h.21V9.898a.369.369 0 0 0-.027-.141l.001.003a.35.35 0 0 0-.071-.114zm1.257-.009a.378.378 0 0 0-.241-.089.36.36 0 0 0-.126.023.337.337 0 0 0-.193.177l-.001.002a.383.383 0 0 0-.031.157v.776a.361.361 0 0 0 .031.159.314.314 0 0 0 .082.109.369.369 0 0 0 .238.091.367.367 0 0 0 .241-.091.321.321 0 0 0 .08-.109.376.376 0 0 0 .031-.159v-.783a.366.366 0 0 0-.032-.152l.001.002a.356.356 0 0 0-.08-.113zm-.099 1.046.001.012a.136.136 0 0 1-.043.1c-.027.023-.062.036-.1.036s-.073-.014-.1-.036a.14.14 0 0 1-.043-.1l.001-.013v.001-.776l-.001-.012c0-.039.016-.075.043-.1a.154.154 0 0 1 .2.001.14.14 0 0 1 .043.1l-.001.013v-.001.777zm1.75.347v-1.47h-.203l-.267.778h-.004l-.269-.778h-.201v1.469h.21v-.894h.004l.205.632h.105l.207-.632h.004v.894h.21zm1.192-1.366a.285.285 0 0 0-.119-.08.444.444 0 0 0-.144-.023h-.319v1.47h.21v-.574h.108a.386.386 0 0 0 .189-.04.304.304 0 0 0 .114-.111l.001-.001c.024-.039.041-.083.048-.128s.011-.1.011-.154v-.014.001a.875.875 0 0 0-.02-.21.323.323 0 0 0-.077-.135zm-.108.448a.188.188 0 0 1-.02.078l.001-.001a.119.119 0 0 1-.053.051h-.001a.21.21 0 0 1-.088.019h-.011.001-.096v-.5h.118c.031 0 .06.007.086.019l-.001-.001a.12.12 0 0 1 .049.053v.001a.196.196 0 0 1 .018.082v.098c0 .034.002.07 0 .101h-.002zm1.1-.552h-.172l-.324 1.47h.21l.061-.316h.286l.061.316h.209l-.332-1.47zm-.193.954.103-.533h.004l.102.533h-.209zm1.546-.068h-.004l-.316-.885h-.201v1.47h.209v-.884h.004l.32.884h.197V9.561h-.209v.885zm1.28-.886-.169.585h-.004l-.169-.585h-.221l.288.849v.621h.21v-.621l.288-.848h-.222zM7.04 11.444h.101v.283h.068v-.283h.1v-.058h-.27v.058zm.848-.058-.132.341h.073l.028-.078h.136l.029.078h.075l-.136-.341h-.073zm-.01.206.046-.127.046.127h-.093zm.849.009h.079v.044a.127.127 0 0 1-.081.029H8.72a.088.088 0 0 1-.068-.033.141.141 0 0 1-.025-.081v-.008c0-.076.033-.114.098-.114h.007c.034 0 .062.023.07.054v.001l.067-.013c-.014-.067-.063-.1-.145-.1h-.005a.175.175 0 0 0-.115.044.164.164 0 0 0-.049.131v-.001.008c0 .046.017.088.044.12.03.031.072.05.119.05h.011-.001.006a.202.202 0 0 0 .139-.055v-.134h-.148v.058zm.857-.215h-.069v.341h.239v-.058h-.17v-.283zm.724 0h-.069v.341h.069v-.341zm.708.228-.14-.228h-.067v.341h.064v-.223l.137.223h.069v-.341h-.063v.228zm.64-.037h.17v-.058h-.17v-.075h.183v-.058h-.252v.341h.259v-.058h-.19v-.092zm1.552-.056h-.134v-.134h-.068v.341h.068v-.149h.134v.149h.069v-.341h-.069v.135zm.644.056h.171v-.058h-.171v-.075h.183v-.058h-.252v.341h.259v-.058h-.19v-.092zm.873 0c.06-.009.09-.041.09-.095l.001-.01a.08.08 0 0 0-.034-.066.19.19 0 0 0-.087-.021l-.014.001h.001-.145v.341h.069v-.143h.018a.1.1 0 0 1 .038.008h-.001c.01.006.018.015.024.025l.074.108h.082l-.042-.067a.234.234 0 0 0-.075-.081l-.001-.001zm-.069-.047h-.051v-.086h.054l.014-.001c.02 0 .039.003.056.009h-.001a.045.045 0 0 1-.003.069.206.206 0 0 1-.057.009h-.013.001zm.727.047h.17v-.058h-.17v-.075h.183v-.058h-.253v.341h.259v-.058h-.19v-.092z"/></symbol><symbol id="client2" viewBox="0 0 64 32"><path d="m7.853 10.501.01.002a.04.04 0 0 1 .009.005l.047.044a.385.385 0 0 1-.13.083l-.003.001a.522.522 0 0 1-.188.03h-.01a.512.512 0 0 1-.171-.029l.004.001a.368.368 0 0 1-.218-.201l-.001-.002a.397.397 0 0 1-.03-.153v-.01c0-.055.012-.108.033-.155l-.001.002a.372.372 0 0 1 .229-.202l.003-.001a.55.55 0 0 1 .176-.028h.006a.462.462 0 0 1 .296.097l-.039.047-.01.008a.033.033 0 0 1-.014.004h-.002a.034.034 0 0 1-.017-.005l-.021-.013-.029-.016a.323.323 0 0 0-.091-.028h-.002a.426.426 0 0 0-.064-.005h-.011a.393.393 0 0 0-.129.022l.003-.001a.3.3 0 0 0-.103.06.294.294 0 0 0-.091.216V10.283a.32.32 0 0 0 .025.124l-.001-.002c.03.072.089.127.161.152l.002.001c.038.014.08.02.121.02a.58.58 0 0 0 .072-.004.292.292 0 0 0 .156-.065.035.035 0 0 1 .022-.008zm1.36-.223a.374.374 0 0 1-.12.278c-.039.035-.087.062-.139.08s-.115.028-.179.028-.126-.01-.183-.029l.004.001a.433.433 0 0 1-.139-.08.346.346 0 0 1-.088-.12l-.001-.002a.396.396 0 0 1 .001-.316l-.001.003a.368.368 0 0 1 .228-.2.576.576 0 0 1 .358 0c.052.018.1.045.139.08a.36.36 0 0 1 .121.269v.01zm-.124 0a.322.322 0 0 0-.022-.126.262.262 0 0 0-.161-.153l-.002-.001a.417.417 0 0 0-.263 0l.003-.001a.265.265 0 0 0-.163.152l-.001.002a.364.364 0 0 0 0 .252.246.246 0 0 0 .064.094.28.28 0 0 0 .1.059.427.427 0 0 0 .26 0 .267.267 0 0 0 .162-.153.322.322 0 0 0 .022-.126zm1.052.132.012.028.014-.028.015-.028.301-.467c.006-.008.011-.013.017-.015s.013-.002.02-.002h.094v.76h-.105v-.609.001l-.303.474a.046.046 0 0 1-.017.017.051.051 0 0 1-.025.006H10.146a.048.048 0 0 1-.026-.007.046.046 0 0 1-.017-.017l-.311-.477v.61H9.69v-.759h.093c.007 0 .015.001.021.003h-.001a.04.04 0 0 1 .017.014l.307.468a.182.182 0 0 1 .015.027zm1.133-.037v.285h-.118v-.759h.262a.558.558 0 0 1 .147.017.298.298 0 0 1 .104.047c.025.02.045.045.058.073l.001.001a.22.22 0 0 1 .02.097v.003a.209.209 0 0 1-.085.169h-.001a.313.313 0 0 1-.102.05l-.002.001a.564.564 0 0 1-.142.018l-.143-.002zm0-.082h.143a.344.344 0 0 0 .091-.012.186.186 0 0 0 .066-.033h-.001a.144.144 0 0 0 .054-.112v-.01a.143.143 0 0 0-.012-.055v.001a.15.15 0 0 0-.041-.052.253.253 0 0 0-.14-.041l-.019.001h.001-.143v.313zm1.582.367h-.095a.048.048 0 0 1-.024-.007.049.049 0 0 1-.015-.017l-.08-.184h-.402l-.083.183a.035.035 0 0 1-.015.017.044.044 0 0 1-.025.008h-.094l.353-.76h.122l.358.76zm-.582-.282h.332l-.14-.309a.483.483 0 0 1-.026-.068l-.001-.004-.013.04-.013.032-.139.309zm1.091-.474a.04.04 0 0 1 .017.014l.515.573v-.59h.105v.76h-.061a.078.078 0 0 1-.022-.004c-.007-.004-.014-.008-.019-.014l-.515-.573v.027-.001.565h-.105v-.76h.062l.021.003zm1.506.454v.302h-.118v-.302l-.326-.458h.108c.008 0 .016.002.023.007a.085.085 0 0 1 .016.017l.204.295a.29.29 0 0 1 .035.065l.001.002.015-.033.02-.035.201-.297a.057.057 0 0 1 .015-.016.038.038 0 0 1 .023-.008h.109l-.326.46zm-4.788-1.734c.051.006.103.01.156.014.795-.304 1.467-.801 1.933-1.429s.704-1.36.686-2.103l-.876-.748c.178.792.095 1.61-.241 2.364s-.909 1.412-1.658 1.903z"/><path d="m9.77 8.588.023.004c.8-.489 1.41-1.172 1.751-1.96s.397-1.646.162-2.462l-1.247-1.066c.505.876.708 1.856.586 2.827s-.564 1.892-1.274 2.656zM14 5.982c-.212.817-.727 1.554-1.468 2.101a4.6 4.6 0 0 1-.671.415l-.027.012c.603-.151 1.158-.419 1.621-.783s.822-.813 1.05-1.314l-.506-.432z"/><path d="m13.802 5.862-.72-.615c-.014.701-.247 1.387-.676 1.986s-1.037 1.088-1.763 1.417h.004c.162 0 .323-.008.483-.025.678-.236 1.276-.612 1.742-1.094s.786-1.055.929-1.668zM9.874 2.655l-.859-.735c-.768.254-1.429.699-1.895 1.279s-.718 1.266-.72 1.97c.003.777.309 1.532.87 2.144s1.345 1.046 2.228 1.235c.788-.82 1.249-1.834 1.317-2.894s-.262-2.11-.941-2.999zm5.913 3.094c-.003-.922-.433-1.806-1.197-2.458s-1.798-1.02-2.877-1.022h-.009c-.518 0-1.017.085-1.482.241l.033-.01 5.261 4.495c.171-.366.271-.794.272-1.246z"/></symbol><symbol id="client3" viewBox="0 0 64 32"><path d="M5.137 4.59h-.001c-.509 0-.922.372-.922.831v.001c0 .459.413.831.922.831h.001c.509 0 .922-.372.922-.831v-.001c0-.459-.413-.831-.922-.831zm6.801-.265c-.001-.637-.283-1.248-.783-1.699s-1.177-.704-1.884-.706c-.707.001-1.385.255-1.885.706s-.782 1.062-.783 1.699v3.514s5.334-.535 5.334-3.514v-.001zM2.347 8.993c.001.444.197.868.545 1.182s.819.49 1.311.492c.492-.001.963-.178 1.311-.492s.544-.738.545-1.182V6.548s-3.712.373-3.712 2.445zm1.855.438a.527.527 0 0 1-.27-.074.462.462 0 0 1-.178-.194l-.001-.003a.398.398 0 0 1-.027-.256l-.001.003a.424.424 0 0 1 .133-.224.498.498 0 0 1 .246-.119h.003c.094-.017.192-.008.281.025s.165.089.218.161a.411.411 0 0 1 .046.411.441.441 0 0 1-.105.143.506.506 0 0 1-.154.094l-.003.001a.526.526 0 0 1-.186.034h-.001v-.002zm3.395-.788v.91h-.188v-.91h.188zm.362.389v.146h-.414v-.146h.414zm.044-.389v.147h-.457v-.147h.457zm.856.434v.043c0 .069-.009.131-.028.186s-.045.101-.08.141v-.001a.344.344 0 0 1-.122.088.391.391 0 0 1-.151.031h-.006c-.057 0-.109-.01-.157-.03s-.089-.051-.122-.088a.413.413 0 0 1-.08-.138l-.001-.003a.558.558 0 0 1-.028-.178v-.052c0-.07.009-.132.028-.186s.045-.101.08-.141v.001a.356.356 0 0 1 .279-.12c.058 0 .11.01.157.031s.088.05.122.089c.035.039.061.086.08.141s.029.116.029.186zm-.189.043v-.044a.534.534 0 0 0-.013-.127.292.292 0 0 0-.039-.094l.001.001a.167.167 0 0 0-.062-.056h-.001a.176.176 0 0 0-.081-.019h-.004c-.032 0-.06.006-.084.019s-.046.033-.061.056v.001a.307.307 0 0 0-.038.091v.002a.556.556 0 0 0-.013.119v.052c0 .048.004.09.013.128s.022.068.039.093c.017.025.038.044.063.057s.053.019.084.019c.032 0 .06-.006.084-.019s.046-.033.061-.056v-.001c.017-.026.029-.057.038-.093s.013-.077.013-.12v-.008zm.798.195v-.002a.126.126 0 0 0-.008-.043v.001a.08.08 0 0 0-.026-.036.22.22 0 0 0-.053-.032l-.002-.001a.633.633 0 0 0-.085-.032l-.005-.001a1.008 1.008 0 0 1-.124-.048l.007.003a.508.508 0 0 1-.099-.059l.001.001a.24.24 0 0 1-.065-.077l-.001-.001a.216.216 0 0 1-.024-.099v-.008c0-.037.009-.071.026-.101l-.001.001c.017-.031.04-.058.07-.08s.066-.04.106-.052a.481.481 0 0 1 .312.018c.05.024.089.057.116.099.028.042.042.09.042.144h-.186v-.003a.146.146 0 0 0-.017-.068v.001a.12.12 0 0 0-.049-.048h-.001a.178.178 0 0 0-.077-.018H9.312a.21.21 0 0 0-.076.015h.001a.111.111 0 0 0-.049.039.095.095 0 0 0-.016.053v.002c0 .015.004.029.011.042a.117.117 0 0 0 .035.035c.015.011.034.021.057.031s.049.019.078.028c.05.015.093.032.131.051s.07.04.095.063c.026.023.045.05.058.079s.019.063.019.101v.009a.215.215 0 0 1-.09.176h-.001c-.029.022-.064.038-.104.049a.516.516 0 0 1-.269-.001.405.405 0 0 1-.121-.055l.001.001a.27.27 0 0 1-.084-.091L8.987 9.4a.27.27 0 0 1-.032-.133h.188c0 .028.004.052.013.072s.021.035.037.047a.156.156 0 0 0 .057.026h.001a.285.285 0 0 0 .074.008h.007a.203.203 0 0 0 .074-.014h-.001a.1.1 0 0 0 .063-.092v-.001zm.722-.672v.91h-.187v-.91h.187zm.28 0v.147h-.742v-.147h.742zm.717.764v.146h-.484v-.146h.484zm-.423-.764v.91h-.188v-.91h.188zm.36.371v.143h-.421v-.143h.421zm.063-.371v.147h-.484v-.147h.484zm.11 0h.339c.07 0 .13.01.179.031s.089.052.116.093.041.091.041.151c0 .049-.008.091-.025.126s-.04.064-.069.086h-.001a.332.332 0 0 1-.102.054l-.003.001-.059.031h-.295l-.001-.146h.225a.178.178 0 0 0 .077-.018h-.001a.12.12 0 0 0 .049-.048v-.001a.144.144 0 0 0 .017-.069v-.008a.156.156 0 0 0-.017-.072v.001a.108.108 0 0 0-.049-.048h-.001a.177.177 0 0 0-.077-.017h-.158v.763h-.187v-.91zm.508.91-.207-.406.198-.001.21.398v.009h-.201zm.985-.324h-.232v-.146H12.797a.196.196 0 0 0 .081-.018l-.001.001a.113.113 0 0 0 .049-.05v-.001a.187.187 0 0 0-.001-.149v.001a.128.128 0 0 0-.049-.056h-.001a.155.155 0 0 0-.081-.021H12.62v.763h-.187v-.91h.354c.071 0 .132.013.183.039a.28.28 0 0 1 .158.26c0 .059-.013.11-.041.153s-.066.076-.117.099a.442.442 0 0 1-.183.035zm1.081.178v.146h-.484v-.146h.484zm-.423-.764v.91h-.188v-.91h.188zm.36.371v.143h-.421v-.143h.421zm.062-.371v.147h-.484v-.147h.484zm.53 0v.91h-.187v-.91h.187zm.28 0v.147h-.742v-.147h.742zm.717.764v.146h-.484v-.146h.484zm-.423-.764v.91h-.188v-.91h.188zm.36.371v.143h-.421v-.143h.421zm.062-.371v.147h-.484v-.147h.484zm.111 0h.339c.07 0 .13.01.18.031s.089.052.116.093a.268.268 0 0 1 .041.151c0 .049-.009.091-.025.126s-.04.064-.069.086h-.001a.344.344 0 0 1-.102.054l-.003.001-.059.031h-.295l-.001-.146h.226a.178.178 0 0 0 .077-.018h-.001a.12.12 0 0 0 .049-.048v-.001a.145.145 0 0 0 .017-.07v-.007a.163.163 0 0 0-.017-.073v.001a.108.108 0 0 0-.049-.048h-.001a.177.177 0 0 0-.077-.017h-.158v.763h-.188v-.91zm.508.91-.208-.406.198-.001.21.398v.009h-.201zm.785-.238v-.001a.122.122 0 0 0-.008-.043v.001a.088.088 0 0 0-.026-.036.22.22 0 0 0-.053-.032l-.002-.001a.633.633 0 0 0-.085-.032l-.005-.001a1.095 1.095 0 0 1-.125-.048l.007.003a.508.508 0 0 1-.099-.059l.001.001a.24.24 0 0 1-.065-.077l-.001-.001a.216.216 0 0 1-.024-.099v-.008c0-.037.009-.071.026-.101l-.001.001c.017-.031.04-.058.07-.08s.066-.04.106-.052a.481.481 0 0 1 .312.018c.05.024.089.057.116.099.028.042.042.09.042.144H16.8v-.003a.146.146 0 0 0-.017-.068v.001a.12.12 0 0 0-.049-.048h-.001a.178.178 0 0 0-.077-.018H16.643a.21.21 0 0 0-.076.015h.001a.098.098 0 0 0-.065.093v.001c0 .015.004.029.011.042a.117.117 0 0 0 .035.035c.015.011.034.021.057.031s.049.019.078.028c.05.015.093.032.131.051s.07.04.095.063c.026.023.045.05.058.079s.019.063.019.101v.009a.215.215 0 0 1-.09.176h-.001c-.029.022-.064.038-.104.049a.514.514 0 0 1-.268-.001.405.405 0 0 1-.121-.055l.001.001a.27.27 0 0 1-.084-.091l-.001-.001a.27.27 0 0 1-.032-.133h.188c0 .028.004.052.013.072s.021.035.037.047a.156.156 0 0 0 .057.026h.001a.285.285 0 0 0 .074.008h.007a.203.203 0 0 0 .074-.014h-.001a.1.1 0 0 0 .063-.092v-.001z"/></symbol><symbol id="client4" viewBox="0 0 64 32"><path d="M5.716 9.466c.052.058.08.131.079.207.003.049-.007.098-.028.143s-.053.085-.094.118a.568.568 0 0 1-.318.096l-.039-.001h.002-.624V8.721h.611l.036-.001c.112 0 .217.033.305.089l-.002-.001c.039.03.071.067.091.11s.03.089.027.135a.283.283 0 0 1-.071.2.337.337 0 0 1-.184.102h-.002a.367.367 0 0 1 .211.112zm-.732-.197h.261a.268.268 0 0 0 .166-.043.154.154 0 0 0 .044-.057v-.001a.132.132 0 0 0 .012-.057l-.001-.014v.001-.011a.13.13 0 0 0-.013-.059v.001a.157.157 0 0 0-.043-.058.27.27 0 0 0-.15-.045l-.022.001h.001-.257v.343zm.453.501a.171.171 0 0 0 .048-.059V9.71a.142.142 0 0 0 .014-.063V9.627a.141.141 0 0 0-.015-.065v.001a.169.169 0 0 0-.049-.06.287.287 0 0 0-.178-.047h.001-.274v.36h.278a.302.302 0 0 0 .175-.045zm1.528.259-.34-.511h-.128v.511h-.292V8.721h.554l.04-.001c.13 0 .25.042.347.114l-.002-.001c.077.071.124.165.132.264s-.025.198-.09.277a.464.464 0 0 1-.264.133l.362.523h-.318zm-.468-.69h.239c.166 0 .249-.066.249-.198V9.13a.182.182 0 0 0-.014-.07v.001a.193.193 0 0 0-.047-.068.276.276 0 0 0-.165-.054l-.024.001h.001-.242l.003.398zm2.067.426h-.583l-.103.263h-.307l.535-1.293h.332l.533 1.293h-.307l-.101-.263zm-.078-.198-.213-.552-.213.552h.426zm2.079.462h-.29l-.651-.89v.89h-.29V8.721h.29l.651.895v-.895h.29v1.308zm1.657-.314a.603.603 0 0 1-.259.229l-.004.002a.918.918 0 0 1-.408.082h-.517V8.72h.541c.139 0 .271.03.39.083l-.006-.002c.111.051.203.13.263.228a.696.696 0 0 1-.002.689l.002-.003zm-.332-.031a.45.45 0 0 0 .128-.312.447.447 0 0 0-.129-.312.536.536 0 0 0-.33-.112l-.035.001h.002-.202v.847h.202l.034.001c.125 0 .24-.042.331-.113l-.001.001zm-3.144-8.24s3.747 1.274 3.668 3.117v3.118S8.669 6.405 8.747 4.561l-.001-3.117zm7.006 5.504a5.492 5.492 0 0 1 2.381-.79v-.976c-.985.342-1.82.961-2.381 1.766z"/><path d="M15.327 7.242c.579-1.05 1.584-1.86 2.806-2.264V2.166s-5.337 1.814-5.224 4.439v4.439s.238-.081.612-.233c0-.142 0-.285.017-.429.111-1.219.754-2.348 1.789-3.139z"/><path d="M14.819 8.891c.031-.336.098-.644.195-.938l-.008.029a4.073 4.073 0 0 0-1.116 2.425 3.56 3.56 0 0 0-.014.256c.447-.192.784-.355 1.115-.529l-.088.042a4.037 4.037 0 0 1-.082-1.302l-.001.017zm.213.016a3.992 3.992 0 0 0 .071 1.19l-.005-.026c1.458-.786 3.097-1.999 3.033-3.466v-.128a5.029 5.029 0 0 0-2.774 1.167 3.912 3.912 0 0 0-.324 1.247l-.001.016z"/></symbol><symbol id="client5" viewBox="0 0 64 32"><path d="M11.42 5.854a.623.623 0 0 1-.131-.384l.001-.043v.002-.616c0-.189.043-.332.129-.431s.233-.147.442-.147c.196 0 .335.042.418.125.09.107.133.237.123.368v.145h-.351v-.147a.775.775 0 0 0-.01-.144.138.138 0 0 0-.05-.085.2.2 0 0 0-.112-.034l-.016.001h.001l-.015-.001a.211.211 0 0 0-.119.036h.001a.163.163 0 0 0-.058.093v.001a.685.685 0 0 0-.014.14v.013-.001.748l-.001.028c0 .067.017.129.047.184l-.001-.002c.018.023.042.04.069.051h.001a.2.2 0 0 0 .091.012.19.19 0 0 0 .124-.034.15.15 0 0 0 .052-.09v-.001c.008-.05.012-.1.011-.15v-.152h.351v.139l.001.036a.557.557 0 0 1-.124.352l.001-.001c-.08.092-.218.137-.42.137s-.354-.049-.441-.15zm1.46.007c-.089-.096-.133-.236-.133-.421v-.648c0-.183.044-.322.133-.416s.237-.141.445-.14c.206 0 .354.047.442.14s.134.233.134.416v.648c0 .183-.045.323-.135.42s-.237.145-.441.145-.355-.049-.445-.144zm.608-.156a.36.36 0 0 0 .042-.192v-.794l.001-.021a.356.356 0 0 0-.043-.169l.001.002a.161.161 0 0 0-.07-.051h-.001a.188.188 0 0 0-.094-.011h.001l-.023-.001a.208.208 0 0 0-.071.013h.001a.179.179 0 0 0-.072.051.346.346 0 0 0-.042.188v.797a.36.36 0 0 0 .042.192.236.236 0 0 0 .256.047l-.002.001a.22.22 0 0 0 .074-.048v-.004zm.835-1.45h.378l.284 1.196.29-1.196h.368l.037 1.726h-.272l-.029-1.199-.28 1.199h-.218l-.291-1.204-.027 1.204h-.275l.034-1.726zm1.78 0h.588c.339 0 .508.163.508.49 0 .313-.179.469-.535.469h-.2v.767h-.363l.002-1.726zm.503.738a.276.276 0 0 0 .2-.055.276.276 0 0 0 .052-.196v.001-.02a.545.545 0 0 0-.018-.141l.001.004a.129.129 0 0 0-.027-.047.149.149 0 0 0-.045-.034h-.001a.363.363 0 0 0-.142-.028l-.021.001h.001-.141v.516h.141zm1.118-.738h.39l.4 1.726h-.339l-.079-.398h-.348l-.081.398h-.343l.4-1.726zm.333 1.128-.136-.724-.136.724h.272zm.78-1.128h.254l.486.985v-.985h.302v1.726h-.242l-.49-1.028v1.028h-.311l.001-1.726zm1.748 1.068-.404-1.066h.341l.247.684.232-.684h.333l-.4 1.066v.658h-.349v-.658zM11.98 6.736v.09h-.297v.701h-.124v-.701h-.298v-.09h.718zm.929.791h-.098a.04.04 0 0 1-.024-.008.046.046 0 0 1-.016-.018l-.086-.188h-.411l-.086.188a.05.05 0 0 1-.013.021.041.041 0 0 1-.025.008h-.098l.363-.791h.126l.368.788zm-.601-.293h.343l-.145-.322a.483.483 0 0 1-.026-.071l-.001-.004-.014.042-.013.033-.144.322zm1.227.216a.54.54 0 0 0 .181-.024l-.003.001.049-.02v-.178h-.147l-.009-.001a.04.04 0 0 1-.009-.005l-.005-.006a.019.019 0 0 1-.002-.007v-.062h.282v.303a.524.524 0 0 1-.149.064l-.004.001a.693.693 0 0 1-.197.021h-.004a.554.554 0 0 1-.183-.031l.004.001a.437.437 0 0 1-.146-.083h.001a.374.374 0 0 1-.093-.123l-.001-.002a.39.39 0 0 1-.033-.159v-.011c0-.058.012-.113.034-.163l-.001.003c.021-.047.053-.09.094-.125s.091-.064.145-.082a.677.677 0 0 1 .382-.002.433.433 0 0 1 .136.072l-.035.049a.032.032 0 0 1-.012.011.03.03 0 0 1-.016.004.048.048 0 0 1-.023-.007.31.31 0 0 1-.037-.02l.002.001a.29.29 0 0 0-.047-.021l-.002-.001a.35.35 0 0 0-.064-.017h-.003a.579.579 0 0 0-.087-.007H13.524a.427.427 0 0 0-.139.023l.003-.001a.284.284 0 0 0-.175.161.373.373 0 0 0 .001.267l-.001-.003a.293.293 0 0 0 .073.1c.03.027.066.048.106.063a.41.41 0 0 0 .144.016zm1.158-.013h.397v.09h-.518v-.791h.124l-.003.701zm.809.09h-.124v-.791h.124v.791zm.462-.788a.072.072 0 0 1 .019.014l.531.597-.001-.014.001-.015v.001-.59h.108v.795h-.067a.06.06 0 0 1-.023-.005.075.075 0 0 1-.02-.015l-.53-.596v.616h-.104v-.792h.065c.007 0 .014.001.02.004zm1.573-.003v.087h-.44v.261h.356v.084h-.356v.27h.44v.087h-.568v-.79h.568zM4.522 1.847l5.515 1.351v4.735l-5.515-1.35V1.847zm-.354-.403v5.369l6.222 1.525V2.969L4.168 1.443z"/><path d="M7.503 10.83 1.28 9.304V3.935L7.503 5.46v5.37z"/><path d="M4.271 1.786 9.714 3.12 7.399 5.118 1.955 3.783l2.316-1.997zm-.103-.342L1.28 3.936l6.223 1.526L10.39 2.97 4.168 1.444zm3.685 9.084 2.537-2.19-2.537-.622v2.812z"/></symbol><symbol id="antenna" viewBox="0 0 32 32"><path fill="#2e2f42" d="m30.773 22.098-8.443-8.505.937-4.615c.242.094.499.143.759.145h.032a2.16 2.16 0 1 0-2.029-1.42l-.005-.015-4.96.605L8.973.16A.53.53 0 0 0 8.597 0a.536.536 0 0 0-.373.155L6.711 1.659a.53.53 0 0 0 0 .754l.814.825C6.382 5.3 5.709 7.76 5.709 10.377c0 4.106 1.656 7.825 4.336 10.526l-.001-.001a.506.506 0 0 0 .146.098 2.986 2.986 0 0 0-.052.546v6.188h-6.4A2.669 2.669 0 0 0 1.071 30.4v1.067c0 .295.239.533.534.533h24.534a.535.535 0 0 0 .534-.534v-1.067a2.67 2.67 0 0 0-2.667-2.666h-6.4v-2.742a14.784 14.784 0 0 0 10.166-1.502l-.077.039.819.823a.534.534 0 0 0 .377.16.532.532 0 0 0 .373-.155l1.512-1.505a.535.535 0 0 0 0-.754zM23.28 6.233a1.067 1.067 0 1 1 .752 1.822h-.003a1.066 1.066 0 0 1-.746-1.822h-.002zm-1.256 3.505-.599 2.945-1.175-1.182 1.774-1.764zm-.605-.902-1.92 1.909-1.485-1.493 3.405-.415zM24.004 28.8a1.6 1.6 0 0 1 1.6 1.6v.534H2.138V30.4a1.6 1.6 0 0 1 1.6-1.6h20.267zm-7.466-2.134v1.067h-5.334v-1.067h5.334zM11.204 25.6v-4.053c0-1.294 1.197-2.346 2.666-2.346s2.667 1.053 2.667 2.346V25.6h-5.334zm6.4-1.696v-2.357c0-1.882-1.675-3.413-3.733-3.413h-.059c-1.353 0-2.54.707-3.213 1.771l-.009.016a13.816 13.816 0 0 1-3.811-9.549c0-2.314.567-4.496 1.569-6.414l-.036.077 18.602 18.709c-1.823.947-3.98 1.502-6.266 1.502-1.079 0-2.128-.124-3.136-.357l.093.018zm11.289-.683L7.836 2.041l.755-.752 7.935 7.98c.003 0 .006.007.009.009l13.114 13.191-.757.752z" style="fill:var(--color1, #2e2f42)"/><path fill="#4d5ae5" d="M13.876 20.267h-.007a1.6 1.6 0 0 0-.003 3.2h.007a1.6 1.6 0 0 0 .003-3.2zm.373 1.978a.534.534 0 0 1-.91-.379v-.002a.533.533 0 0 1 .53-.53.535.535 0 0 1 .374.912h.005z" style="fill:var(--color2, #4d5ae5)"/></symbol><symbol id="astronaut" viewBox="0 0 32 32"><path fill="#4d5ae5" d="M31.974 4.524a.535.535 0 0 0-.427-.362h-.003l-1.911-.278-.855-1.731c-.179-.365-.776-.365-.956 0l-.855 1.731-1.91.278a.534.534 0 0 0-.296.909l1.383 1.348-.326 1.903a.533.533 0 0 0 .774.561l1.709-.899 1.709.899a.534.534 0 0 0 .773-.565v.003l-.326-1.903L31.84 5.07a.535.535 0 0 0 .134-.55l.001.004zm-2.463 1.327a.534.534 0 0 0-.153.472l.191 1.114-1-.526a.524.524 0 0 0-.499.001l.003-.001-1 .526.191-1.114a.53.53 0 0 0-.153-.472l-.81-.79 1.119-.162a.533.533 0 0 0 .401-.292l.5-1.013.501 1.013a.535.535 0 0 0 .402.292l1.119.162-.809.79zm-3.377 14.671h-1.067v1.067h1.067v-1.067zm0 2.133h-1.067v1.067h1.067v-1.067z" style="fill:var(--color2, #4d5ae5)"/><path fill="#4d5ae5" d="M27.2 21.589h-1.067v1.067H27.2v-1.067zm-2.133 0H24v1.067h1.067v-1.067zm-2.667 4.8h-1.067v1.067H22.4v-1.067zm0 2.134h-1.067v1.067H22.4v-1.067zm1.067-1.067H22.4v1.067h1.067v-1.067zM21.334 27.456h-1.067v1.067h1.067v-1.067zM16 24.256h-1.066v1.067H16v-1.067zm0 2.133h-1.066v1.067H16v-1.067zm1.067-1.066H16v1.067h1.067v-1.067zm-2.133 0h-1.067v1.067h1.067v-1.067zM5.867 6.122H4.801v1.066h1.066V6.122zm0 2.133H4.801v1.067h1.066V8.256zm1.066-1.066H5.867v1.067h1.066V7.189zm-2.133 0H3.733v1.067H4.8V7.189z" style="fill:var(--color2, #4d5ae5)"/><path fill="#2e2f42" d="M24.715 14.159a1.778 1.778 0 0 0-1.179-.704l-.009-.001a1.764 1.764 0 0 0-1.344.356l.004-.003-1.252.96-1.898 1.417-1.358-.541c2.421-1.086 4.114-3.508 4.114-6.32 0-3.823-3.122-6.933-6.961-6.933S7.87 5.5 7.87 9.323a6.86 6.86 0 0 0 1.12 3.758l-2.769-.024c-.008 0-.015.005-.024.005a.52.52 0 0 0-.155.03c-.013.005-.026.008-.038.014-.006.002-.013.003-.019.007L2.751 14.71l-1.893.911a.429.429 0 0 0-.064.036l.001-.001a1.78 1.78 0 0 0-.593 2.304l-.005-.01c.22.429.595.745 1.056.89a1.772 1.772 0 0 0 1.388-.133l-.009.005 1.388-.738 2.264-1.169 1.357-.008-5.442 5.415-.002.002-1.339 1.333c-.303.299-.49.714-.49 1.173v.005a1.668 1.668 0 0 0 1.669 1.663 1.67 1.67 0 0 0 1.18-.485l1.314-1.308 1.74-1.3.901.897L4.07 27.28c-.303.299-.49.714-.49 1.173v.005a1.669 1.669 0 0 0 1.67 1.664c.428 0 .855-.162 1.18-.485l3.482-3.466.001-.002 1.01-1-.004-.003c.007-.006.015-.009.022-.015l5.166-5.658 3.471.494a.522.522 0 0 0 .266-.035l-.004.001c.017-.006.033-.015.05-.023.019-.009.039-.015.057-.027l3.213-2.134c.012-.008.018-.02.029-.029.012-.01.029-.014.04-.025l1.272-1.192a1.777 1.777 0 0 0 .209-2.366l.003.005zM2.13 17.77a.714.714 0 0 1-.558.052.717.717 0 0 1-.215-1.258l.002-.001 1.314-.632.316.925.133.388-.993.527zm3.498-1.827-1.548.8-.255-.747-.183-.537 2.026-1-.04 1.483zm15.099-6.621a5.79 5.79 0 0 1-.599 2.559l-4.181-1.899a1.86 1.86 0 0 0-.782-1.384l-.006-.004 1.464-4.86c2.378.755 4.105 2.974 4.105 5.587zm-11.789 0c0-3.235 2.644-5.867 5.894-5.867.253 0 .5.022.745.053l-1.432 4.753c-.019 0-.037-.005-.057-.005h-.001a1.872 1.872 0 0 0-1.872 1.866 1.873 1.873 0 0 0 1.872 1.867h.001c.694 0 1.294-.383 1.618-.944l3.863 1.755a5.891 5.891 0 0 1-4.736 2.39c-3.25 0-5.895-2.633-5.895-5.867zm5.957.8c0 .441-.362.8-.806.8h-.002a.804.804 0 0 1-.804-.8c0-.441.361-.8.806-.8s.806.359.806.8zM2.465 25.146a.609.609 0 0 1-.855 0 .591.591 0 0 1 0-.844l.962-.959.851.848-.958.955zm3.213 3.734a.606.606 0 0 1-.855.001.591.591 0 0 1 0-.844l.963-.959.851.848-.96.955zm3.483-3.469-.002.001-1.765 1.76-.851-.848 1.763-1.756.002-.001c.04-.04.065-.088.09-.135.007-.014.02-.026.026-.04.017-.041.019-.085.025-.129.004-.024.014-.047.014-.073 0-.035-.012-.07-.02-.105-.007-.032-.007-.065-.018-.096a.511.511 0 0 0-.091-.137c-.01-.012-.014-.027-.025-.038h-.001l-.001-.002-1.607-1.6c-.017-.017-.039-.024-.058-.038a.491.491 0 0 0-.084-.056l-.003-.001a.477.477 0 0 0-.09-.032l-.003-.001a.502.502 0 0 0-.101-.02h-.022a.49.49 0 0 0-.077.006h.003a.59.59 0 0 0-.108.021l.004-.001a.502.502 0 0 0-.096.046l.002-.001c-.02.011-.043.015-.061.029l-1.774 1.324-.901-.897 2.399-2.386 4.36 4.289-.927.919zm6.818-7.017c-.015-.002-.03.004-.045.003l-.026-.001a.562.562 0 0 0-.092.008h.003a.5.5 0 0 0-.187.069l.002-.001a.554.554 0 0 0-.083.061c-.013.011-.028.017-.04.029l-4.698 5.146-4.328-4.257 2.833-2.818a.535.535 0 0 0-.378-.911h-.001l-2.219.013.027-1.607 3.104.027a6.928 6.928 0 0 0 4.978 2.101h.003c.438 0 .864-.045 1.279-.122.04.032.079.064.13.085l2.409.96.152.758.178.885-3.003-.427zm4.041.179-.314-1.558 1.447-1.08.947 1.257-2.08 1.381zm3.754-2.831-.838.785-.931-1.236.831-.637a.73.73 0 0 1 .543-.143.716.716 0 0 1 .395 1.231z" style="fill:var(--color1, #2e2f42)"/><path fill="#2e2f42" d="m13.602 18.544-2.143-2.134a.53.53 0 0 0-.752 0l-2.143 2.134a.533.533 0 0 0 0 .756l2.143 2.133a.53.53 0 0 0 .752 0l2.143-2.133a.532.532 0 0 0 0-.756zm-2.519 1.759-1.386-1.381 1.386-1.381 1.387 1.381-1.387 1.381zm6.081-15.232-.258 1.035c.071.018 1.738.452 1.738 2.149h1.067c0-2.017-1.666-2.966-2.546-3.185zm2.547 4.251h-1.067v1.067h1.067V9.322z" style="fill:var(--color1, #2e2f42)"/></symbol><symbol id="clock" viewBox="0 0 32 32"><path fill="#2e2f42" d="M31.297 15.301C31.295 6.849 24.442-.002 15.989 0S.686 6.855.688 15.308C.69 22.096 5.11 27.851 11.229 29.853l.108.031a.67.67 0 0 0 .529-.064.642.642 0 0 0 .284-.357l3.865-12.25a1.913 1.913 0 1 0-.851-3.63l.011-.005-5.106-5.107a.637.637 0 1 0-.902.902l5.104 5.109a1.873 1.873 0 0 0 .532 2.306l.004.003-3.683 11.673C3.846 25.783.119 17.71 2.801 10.432 5.482 3.155 13.556-.573 20.833 2.109s11.004 10.755 8.323 18.032c-1.345 3.581-4.004 6.406-7.374 7.938l-.088.036-.398-1.875a.638.638 0 0 0-1.049-.343l.001-.001-3.837 3.425a.639.639 0 0 0 .227 1.084l.005.001 4.899 1.564a.637.637 0 0 0 .818-.743l.001.004-.391-1.839c5.528-2.374 9.329-7.772 9.329-14.057v-.034.002zm-15.305-.637a.638.638 0 0 1 0 1.276.638.638 0 0 1 0-1.276zm2.101 14.863 2.184-1.948.603 2.84-2.787-.892z" style="fill:var(--color1, #2e2f42)"/><path fill="#4d5ae5" d="M15.354 3.185V4.46a.638.638 0 1 0 1.275 0V3.185a.639.639 0 0 0-1.274-.002v.001zM3.876 14.664a.637.637 0 1 0 .001 1.274h1.275a.638.638 0 1 0 0-1.274H3.877zm24.232 1.275a.637.637 0 1 0 0-1.274h-1.275a.639.639 0 0 0-.002 1.274H28.107z" style="fill:var(--color2, #4d5ae5)"/></symbol><symbol id="diagram" viewBox="0 0 32 32"><path fill="#4d5ae5" d="M14.925 14.965h1.066v4.797h-1.066v-4.797zm4.265 2.132h1.066v2.665H19.19v-2.665zm-8.529 1.599h1.066v1.066h-1.066v-1.066zm-3.198-.533h1.066v1.599H7.463v-1.599z" style="fill:var(--color2, #4d5ae5)"/><path fill="#2e2f42" d="M1.599 28.291h25.587a1.6 1.6 0 0 0 1.599-1.599v-2.133a1.6 1.6 0 0 0-1.599-1.599h-.534V9.667l3.028-2.868a1.608 1.608 0 1 0-.742-.753l-.004-.01-2.282 2.163v-1.23a1.6 1.6 0 0 0-1.599-1.599H3.73a1.6 1.6 0 0 0-1.599 1.599V22.961h-.533A1.6 1.6 0 0 0-.001 24.56v2.134a1.6 1.6 0 0 0 1.599 1.599zM30.384 4.837a.533.533 0 0 1 0 1.066.533.533 0 0 1 0-1.066zM3.199 6.969c0-.295.239-.534.533-.534h21.322c.294 0 .533.239.533.534v2.238l-1.066 1.013V8.035a.532.532 0 0 0-.533-.533H4.798a.533.533 0 0 0-.533.533v13.326c0 .295.239.534.533.534h19.19a.534.534 0 0 0 .533-.534v-9.674l1.066-1.01V22.96H3.199V6.969zm4.797 6.93h-.005a1.6 1.6 0 1 0 1.112 2.748l1.853.93a.532.532 0 0 0 .636-.123l3.938-4.431 3.872 2.902a.532.532 0 0 0 .686-.04l3.365-3.188v8.131H5.33V8.568h18.124v2.66L19.682 14.8l-3.905-2.928a.531.531 0 0 0-.717.072v.001l-3.993 4.493-1.493-.746c.011-.064.018-.129.021-.194a1.6 1.6 0 0 0-1.599-1.599zm.533 1.599a.533.533 0 0 1-1.066 0 .533.533 0 0 1 1.066 0zm3.198 8.528h5.331v.533a.533.533 0 0 1-.533.533h-4.264a.533.533 0 0 1-.533-.533v-.533zm-10.661.534c0-.294.239-.533.533-.533h9.062v.533a1.6 1.6 0 0 0 1.599 1.599h4.265a1.6 1.6 0 0 0 1.599-1.599v-.534h9.061c.295 0 .534.238.534.533v2.133a.534.534 0 0 1-.534.533H1.599a.533.533 0 0 1-.533-.533v-2.133z" style="fill:var(--color1, #2e2f42)"/></symbol><symbol id="facebook" viewBox="0 0 32 32"><path fill="#f4f4fd" d="M21.33 5.314h2.92V.226A36.551 36.551 0 0 0 20.125 0h-.138.007C15.782 0 12.9 2.65 12.9 7.52V12H8.25v5.688h4.648V32h5.698V17.69h4.46l.708-5.69h-5.17V8.08c.002-1.644.444-2.768 2.736-2.768z" style="fill:var(--color3, #f4f4fd)"/></symbol><symbol id="instagram" viewBox="0 0 32 32"><path fill="#f4f4fd" d="M31.968 9.408c-.074-1.7-.35-2.87-.744-3.882a7.845 7.845 0 0 0-1.849-2.837l-.001-.001A7.89 7.89 0 0 0 26.596.862l-.054-.018c-1.02-.394-2.18-.67-3.88-.744C20.946.02 20.4 0 16.06 0c-4.346 0-4.89.02-6.596.094-1.7.074-2.868.35-3.88.744a7.844 7.844 0 0 0-2.839 1.849l-.001.001A7.89 7.89 0 0 0 .918 5.466L.9 5.52C.506 6.54.232 7.7.156 9.4c-.08 1.714-.1 2.26-.1 6.602 0 4.346.02 4.89.094 6.596.074 1.7.35 2.87.744 3.882a7.91 7.91 0 0 0 1.85 2.84 7.91 7.91 0 0 0 2.832 1.842c1.02.394 2.18.67 3.882.744 1.706.076 2.25.094 6.596.094 4.344 0 4.888-.02 6.594-.094 1.7-.074 2.87-.35 3.882-.744 2.156-.85 3.832-2.524 4.663-4.625l.019-.055c.394-1.02.67-2.184.744-3.884.076-1.706.094-2.25.094-6.594 0-4.346-.006-4.89-.08-6.596zm-2.88 13.064c-.07 1.564-.332 2.408-.552 2.97a5.34 5.34 0 0 1-3.002 3.027l-.036.013c-.562.218-1.412.48-2.968.548-1.688.076-2.194.094-6.464.094s-4.782-.02-6.464-.094c-1.564-.068-2.408-.33-2.97-.55a4.947 4.947 0 0 1-1.837-1.193l-.001-.001a4.988 4.988 0 0 1-1.183-1.804l-.011-.034c-.22-.562-.48-1.412-.55-2.968-.074-1.688-.094-2.196-.094-6.464 0-4.27.02-4.782.094-6.464.07-1.564.332-2.406.55-2.97a4.888 4.888 0 0 1 1.2-1.838A4.986 4.986 0 0 1 6.64 3.55c.56-.22 1.412-.48 2.968-.55 1.688-.074 2.194-.094 6.464-.094 4.276 0 4.78.02 6.464.094 1.562.07 2.406.332 2.968.55a4.953 4.953 0 0 1 1.84 1.194 4.98 4.98 0 0 1 1.192 1.84c.22.56.482 1.412.55 2.968.076 1.688.094 2.194.094 6.464s-.018 4.77-.092 6.458z" style="fill:var(--color3, #f4f4fd)"/><path fill="#f4f4fd" d="M16.06 7.782a8.222 8.222 0 0 0-.01 16.44h.009a8.222 8.222 0 0 0 .01-16.44h-.009zm0 13.554a5.334 5.334 0 1 1 0-10.668 5.334 5.334 0 1 1 0 10.668zM26.524 7.458a1.92 1.92 0 0 1-3.84 0 1.92 1.92 0 0 1 3.84 0z" style="fill:var(--color3, #f4f4fd)"/></symbol><symbol id="linkedin" viewBox="0 0 32 32"><path fill="#f4f4fd" d="M31.992 32H32V20.26c0-5.74-1.236-10.164-7.948-10.164-3.226 0-5.392 1.772-6.276 3.45h-.094v-2.912H11.32V32h6.628V21.42c0-2.786.528-5.48 3.976-5.48 3.4 0 3.45 3.18 3.45 5.66V32h6.62zM.528 10.636h6.634V32H.528V10.636zM3.842 0C1.722 0 0 1.72 0 3.84s1.72 3.88 3.842 3.88 3.844-1.76 3.844-3.88A3.849 3.849 0 0 0 3.84 0z" style="fill:var(--color3, #f4f4fd)"/></symbol><symbol id="twitter" viewBox="0 0 32 32"><path fill="#f4f4fd" d="M32 6.078c-1.1.494-2.376.858-3.712 1.029l-.068.007a6.56 6.56 0 0 0 2.873-3.58l.013-.046a12.858 12.858 0 0 1-4.076 1.574l-.084.014A6.56 6.56 0 0 0 15.598 9.56c0 .52.044 1.02.152 1.496A18.554 18.554 0 0 1 2.255 4.228l-.027-.034a6.496 6.496 0 0 0-.895 3.311 6.562 6.562 0 0 0 2.888 5.442l.023.015a6.465 6.465 0 0 1-2.997-.823l.033.017v.072a6.592 6.592 0 0 0 5.213 6.438l.043.008a6.408 6.408 0 0 1-1.669.216h-.054.003a5.842 5.842 0 0 1-1.279-.118l.037.006c.873 2.624 3.273 4.496 6.121 4.57h.009a13.098 13.098 0 0 1-8.12 2.798h-.015.001c-.538 0-1.054-.024-1.57-.09C2.826 27.902 6.287 29 10.004 29h.063-.003c12.072 0 18.672-10 18.672-18.668 0-.29-.01-.57-.024-.848a13.186 13.186 0 0 0 3.258-3.359l.03-.047z" style="fill:var(--color3, #f4f4fd)"/></symbol></defs></svg>